<?xml version="1.0" encoding="UTF-8"?>
<!DOCTYPE svg PUBLIC "-//W3C//DTD SVG 1.1//EN" "http://www.w3.org/Graphics/SVG/1.1/DTD/svg11.dtd">
<!-- Creator: CorelDRAW -->
<svg xmlns="http://www.w3.org/2000/svg" xml:space="preserve" width="10.5079mm" height="7.3175mm" version="1.1" style="shape-rendering:geometricPrecision; text-rendering:geometricPrecision; image-rendering:optimizeQuality; fill-rule:evenodd; clip-rule:evenodd"
viewBox="0 0 195.56 136.19"
 xmlns:xlink="http://www.w3.org/1999/xlink"
 xmlns:xodm="http://www.corel.com/coreldraw/odm/2003">
 <defs>
  <style type="text/css">
   <![CDATA[
    .fil0 {fill:gray}
   ]]>
  </style>
 </defs>
 <g id="Camada_x0020_1">
  <metadata id="CorelCorpID_0Corel-Layer"/>
  <g id="_1637268803744">
   <path class="fil0" d="M4.43 87.98l21.53 0c-1.02,1.48 -1.86,3.09 -2.66,5.07 -2.61,6.54 -3.23,13.78 -1.75,20.51l-17.12 0c-2.44,0 -4.43,-2 -4.43,-4.43l0 -16.71c0,-2.44 2,-4.43 4.43,-4.43zm7.31 6.34c1.11,0 2,0.9 2,2 0,1.11 -0.9,2 -2,2 -1.11,0 -2,-0.9 -2,-2 0,-1.11 0.9,-2 2,-2z"/>
   <path class="fil0" d="M11.74 65c1.11,0 2,0.9 2,2 0,1.11 -0.9,2 -2,2 -1.11,0 -2,-0.9 -2,-2 0,-1.11 0.9,-2 2,-2zm-7.31 -6.34l43.05 0c-3.56,5.11 -5.66,11.12 -6.53,17.7 -4.28,1.71 -8.32,4.34 -11.35,7.36l-0.5 0.51 -24.67 0c-2.44,0 -4.43,-1.99 -4.43,-4.43l0 -16.71c0,-2.44 2,-4.43 4.43,-4.43z"/>
   <path class="fil0" d="M11.74 35.67c1.11,0 2,0.9 2,2 0,1.11 -0.9,2 -2,2 -1.11,0 -2,-0.9 -2,-2 0,-1.11 0.9,-2 2,-2zm-7.31 -6.34l70.23 0c2.44,0 4.43,1.99 4.43,4.43l0 9.42c-6.18,-0.23 -12.52,1.15 -17.91,3.84 -4.27,2.13 -7.81,4.79 -10.69,7.87l-46.07 0c-2.44,0 -4.43,-1.99 -4.43,-4.43l0 -16.71c0,-2.44 2,-4.43 4.43,-4.43z"/>
   <path class="fil0" d="M11.74 6.34c1.11,0 2,0.9 2,2.01 0,1.11 -0.9,2 -2,2 -1.11,0 -2,-0.9 -2,-2 0,-1.11 0.9,-2.01 2,-2.01zm-7.31 -6.34l70.23 0c2.44,0 4.43,1.99 4.43,4.43l0 16.71c0,2.44 -2,4.43 -4.43,4.43l-70.23 0c-2.44,0 -4.43,-2 -4.43,-4.43l0 -16.71c0,-2.44 2,-4.43 4.43,-4.43z"/>
   <path class="fil0" d="M190.43 131.55l1.1 -1.32c3.01,-2.36 5.2,-11.13 3.33,-17.34l-1.51 -3.9c-0.05,-0.09 -0.11,-0.2 -0.16,-0.29l-0.75 -1.02 -1.06 -1.38c-0.4,-0.92 -0.83,-1.32 -1.74,-2.16 -0.8,-0.74 -1.37,-1.09 -2.33,-1.73 -1.53,-1.03 -3.59,-2.16 -5.69,-2.51l-1.93 -0.22 -0.53 -6.46c0.54,-3.52 -3.19,-9.2 -5.21,-10.96l-1.66 -1.66 -1.04 -0.9 -1.2 -0.9c-3.89,-4.07 -13.34,-5.27 -20.18,-3.8 -2.44,0.53 -4.67,1.83 -6.58,1.99 -0.63,-2.34 -4.9,-6.02 -6.77,-7.18l-1.24 -1.01 -1.39 -0.83c-7.85,-6.16 -28.89,-6.7 -38.95,9.38 -1.87,2.99 -4.76,9.56 -4.87,14.08 -4.37,0.09 -10.2,2.17 -13.68,4.35 -0.9,0.56 -2.91,2.13 -3.52,2.8 -9.26,10.14 -5.3,27.95 4.14,33.88 6.12,3.84 11.02,3.62 20.73,3.62 4.94,0 82.1,0.36 85.06,-0.17 2.24,-0.4 6.81,-2.16 7.63,-4.34z"/>
   <path class="fil0" d="M90.98 55.79c-1.55,-0.13 -3.45,-1.26 -6.02,-2.1 -6.32,-2.06 -13.85,-1.05 -19.54,1.79 -11.31,5.64 -15.48,15.84 -15.48,28.27 -4.69,0.39 -10.26,3.26 -13.65,6.65 -1.98,1.98 -3.06,3.28 -4.21,6.16 -3.51,8.8 -2.27,19.61 5.11,26.09 12.06,10.59 17.98,3.88 29.88,6.65 -0.15,-1.82 -0.36,-1.62 -1.16,-2.9 -1.38,-2.23 -2.68,-6.64 -2.87,-9.3 -0.38,-5.21 -0.2,-9.75 1.64,-14.09 2.99,-7.07 10.54,-12.7 18.27,-14.65 7.14,-1.8 0.57,-1.63 9.37,-14.97 8.68,-13.15 28.1,-17.67 42.4,-10.39 2.55,1.3 9.08,5.94 9.91,9.04 3.01,-0.25 3.41,-2.26 12.18,-2.26 0,-7.9 -6,-17.11 -11.38,-22.44 -2.43,-2.4 -6.69,-5.1 -10.13,-6.55 -4.83,-2.05 -5.85,-1.83 -9.93,-2.69 -5.37,-1.13 -7.57,-1.25 -14.85,1.18 -6.55,2.19 -9.89,4.89 -14.48,9.43 -1.45,1.43 -4.54,5.13 -5.07,7.1z"/>
   <path class="fil0" d="M181.62 99.9l-1.8 -0.41c-0.01,-2.8 0.43,-5.07 -0.66,-6.26l0.53 6.46 1.93 0.22z"/>
   <path class="fil0" d="M173.95 82.26c-0.42,-1.35 -0.32,-1.24 -1.66,-1.66l1.66 1.66z"/>
   <polygon class="fil0" points="192.44,107.69 192.44,106.75 191.38,106.3 "/>
   <path class="fil0" d="M190.43 131.55c1.15,-0.61 0.76,0.06 1.1,-1.32l-1.1 1.32z"/>
   <path class="fil0" d="M136.52 69.81c-0.58,-0.88 -0.1,-0.6 -1.24,-1.01l1.24 1.01z"/>
   <path class="fil0" d="M171.25 79.7c-0.59,-0.85 -0.1,-0.59 -1.2,-0.9l1.2 0.9z"/>
   <path class="fil0" d="M135.28 68.8c-0.92,-0.95 -0.17,-0.52 -1.39,-0.83l1.39 0.83z"/>
  </g>
 </g>
</svg>
