<?xml version="1.0" encoding="UTF-8"?>
<!DOCTYPE svg PUBLIC "-//W3C//DTD SVG 1.1//EN" "http://www.w3.org/Graphics/SVG/1.1/DTD/svg11.dtd">
<!-- Creator: CorelDRAW -->
<svg xmlns="http://www.w3.org/2000/svg" xml:space="preserve" width="10.0328mm" height="9.5081mm" version="1.1" style="shape-rendering:geometricPrecision; text-rendering:geometricPrecision; image-rendering:optimizeQuality; fill-rule:evenodd; clip-rule:evenodd"
viewBox="0 0 179.24 169.87"
 xmlns:xlink="http://www.w3.org/1999/xlink"
 xmlns:xodm="http://www.corel.com/coreldraw/odm/2003">
 <defs>
  <style type="text/css">
   <![CDATA[
    .fil0 {fill:gray}
    .fil1 {fill:gray;fill-rule:nonzero}
   ]]>
  </style>
 </defs>
 <g id="Camada_x0020_1">
  <metadata id="CorelCorpID_0Corel-Layer"/>
  <g id="_1637260782224">
   <path class="fil0" d="M7.73 132.31l122.47 0c4.25,0 7.73,3.49 7.73,7.73l0 22.1c0,4.24 -3.49,7.73 -7.73,7.73l-122.47 0c-4.24,0 -7.73,-3.48 -7.73,-7.73l0 -22.1c0,-4.25 3.48,-7.73 7.73,-7.73zm12.74 11.06c1.93,0 3.5,1.57 3.5,3.5 0,1.93 -1.57,3.5 -3.5,3.5 -1.93,0 -3.49,-1.57 -3.49,-3.5 0,-1.93 1.56,-3.5 3.49,-3.5z"/>
   <path class="fil0" d="M20.48 99.26c1.93,0 3.5,1.56 3.5,3.49 0,1.93 -1.57,3.5 -3.5,3.5 -1.93,0 -3.49,-1.57 -3.49,-3.5 0,-1.93 1.56,-3.49 3.49,-3.49zm-12.74 -11.06l122.47 0c4.25,0 7.73,3.49 7.73,7.73l0 22.1c0,4.24 -3.49,7.73 -7.73,7.73l-122.47 0c-4.24,0 -7.73,-3.47 -7.73,-7.73l0 -22.1c0,-4.26 3.48,-7.73 7.73,-7.73z"/>
   <path class="fil0" d="M20.48 55.16c1.93,0 3.5,1.57 3.5,3.49 0,1.93 -1.57,3.5 -3.5,3.5 -1.93,0 -3.49,-1.57 -3.49,-3.5 0,-1.93 1.56,-3.49 3.49,-3.49zm-12.74 -11.06l122.47 0c4.25,0 7.73,3.49 7.73,7.73l0 22.1c0,4.24 -3.49,7.73 -7.73,7.73l-122.47 0c-4.24,0 -7.73,-3.48 -7.73,-7.73l0 -22.1c0,-4.25 3.48,-7.73 7.73,-7.73z"/>
   <path class="fil0" d="M20.48 11.06c1.93,0 3.5,1.57 3.5,3.49 0,1.93 -1.57,3.5 -3.5,3.5 -1.93,0 -3.49,-1.57 -3.49,-3.5 0,-1.93 1.56,-3.49 3.49,-3.49zm-12.74 -11.06l122.47 0c4.25,0 7.73,3.49 7.73,7.73l0 22.1c0,4.24 -3.49,7.73 -7.73,7.73l-122.47 0c-4.24,0 -7.73,-3.48 -7.73,-7.73l0 -22.1c0,-4.25 3.48,-7.73 7.73,-7.73z"/>
   <path class="fil1" d="M136.43 14.35l23.64 0c5.28,0 10.07,2.16 13.54,5.62 3.47,3.47 5.63,8.27 5.63,13.54l0 103.05c0,5.27 -2.16,10.07 -5.63,13.54 -3.48,3.46 -8.28,5.63 -13.54,5.63l-23.64 0 0 -8.52 23.64 0c2.93,0 5.59,-1.2 7.51,-3.12 1.93,-1.95 3.13,-4.61 3.13,-7.53l0 -103.05c0,-2.92 -1.2,-5.58 -3.13,-7.52 -1.93,-1.92 -4.59,-3.13 -7.51,-3.13l-23.64 0 0 -8.52z"/>
   <polygon class="fil1" points="174.98,67.14 136.43,67.14 136.43,58.62 174.98,58.62 "/>
   <polygon class="fil1" points="174.98,111.25 136.43,111.25 136.43,102.72 174.98,102.72 "/>
  </g>
 </g>
</svg>
