<?xml version="1.0" encoding="UTF-8"?>
<!DOCTYPE svg PUBLIC "-//W3C//DTD SVG 1.1//EN" "http://www.w3.org/Graphics/SVG/1.1/DTD/svg11.dtd">
<!-- Creator: CorelDRAW -->
<svg xmlns="http://www.w3.org/2000/svg" xml:space="preserve" width="13.4721mm" height="11.9439mm" version="1.1" style="shape-rendering:geometricPrecision; text-rendering:geometricPrecision; image-rendering:optimizeQuality; fill-rule:evenodd; clip-rule:evenodd"
viewBox="0 0 178.81 158.52"
 xmlns:xlink="http://www.w3.org/1999/xlink"
 xmlns:xodm="http://www.corel.com/coreldraw/odm/2003">
 <defs>
  <style type="text/css">
   <![CDATA[
    .fil1 {fill:gray}
    .fil2 {fill:white}
    .fil0 {fill:gray;fill-rule:nonzero}
   ]]>
  </style>
 </defs>
 <g id="Camada_x0020_1">
  <metadata id="CorelCorpID_0Corel-Layer"/>
  <path class="fil0" d="M6.83 49.44c-2.12,1.29 -4.88,0.62 -6.18,-1.49 -1.29,-2.12 -0.62,-4.89 1.5,-6.18l67.27 -41.12c1.51,-0.92 3.34,-0.84 4.74,0.03l67.22 41.08c2.12,1.29 2.79,4.06 1.5,6.18 -1.29,2.12 -4.06,2.79 -6.18,1.49l-64.93 -39.68 -64.93 39.68z"/>
  <path class="fil0" d="M118.98 53.16c0,-2.24 1.81,-4.05 4.05,-4.05 2.24,0 4.05,1.82 4.05,4.05l0 77.54c0,4.3 -1.76,8.21 -4.6,11.05l-0.02 0.02c-2.84,2.83 -6.75,4.6 -11.05,4.6l-79.31 0c-4.29,0 -8.21,-1.77 -11.06,-4.61 -2.84,-2.83 -4.61,-6.74 -4.61,-11.05l0 -77.54c0,-2.24 1.82,-4.06 4.05,-4.06 2.24,0 4.05,1.82 4.05,4.06l0 77.54c0,2.07 0.85,3.96 2.22,5.33l0 0.01c1.36,1.36 3.25,2.21 5.33,2.21l79.31 0c2.08,0 3.97,-0.85 5.34,-2.22 1.37,-1.37 2.22,-3.26 2.22,-5.34l0 -77.54z"/>
  <path class="fil1" d="M48.02 42.52l47.49 0c2.29,0 4.16,1.87 4.16,4.16l0 9.23c0,2.29 -1.87,4.16 -4.16,4.16l-47.49 0c-2.29,0 -4.16,-1.87 -4.16,-4.16l0 -9.23c0,-2.29 1.87,-4.16 4.16,-4.16zm40.84 6.51c1.25,0 2.27,1.01 2.27,2.27 0,1.25 -1.02,2.27 -2.27,2.27 -1.25,0 -2.27,-1.02 -2.27,-2.27 0,-1.25 1.02,-2.27 2.27,-2.27zm-11.4 0c1.25,0 2.27,1.01 2.27,2.27 0,1.25 -1.02,2.27 -2.27,2.27 -1.25,0 -2.27,-1.02 -2.27,-2.27 0,-1.25 1.02,-2.27 2.27,-2.27zm-11.4 0c1.25,0 2.27,1.01 2.27,2.27 0,1.25 -1.02,2.27 -2.27,2.27 -1.25,0 -2.27,-1.02 -2.27,-2.27 0,-1.25 1.02,-2.27 2.27,-2.27zm-11.39 0c1.25,0 2.27,1.01 2.27,2.27 0,1.25 -1.02,2.27 -2.27,2.27 -1.25,0 -2.27,-1.02 -2.27,-2.27 0,-1.25 1.02,-2.27 2.27,-2.27z"/>
  <path class="fil1" d="M48.02 64.04l47.49 0c2.29,0 4.16,1.87 4.16,4.16l0 9.23c0,2.29 -1.87,4.16 -4.16,4.16l-47.49 0c-2.29,0 -4.16,-1.87 -4.16,-4.16l0 -9.23c0,-2.29 1.87,-4.16 4.16,-4.16zm40.84 6.51c1.25,0 2.27,1.02 2.27,2.27 0,1.25 -1.02,2.27 -2.27,2.27 -1.25,0 -2.27,-1.02 -2.27,-2.27 0,-1.25 1.02,-2.27 2.27,-2.27zm-11.4 0c1.25,0 2.27,1.02 2.27,2.27 0,1.25 -1.02,2.27 -2.27,2.27 -1.25,0 -2.27,-1.02 -2.27,-2.27 0,-1.25 1.02,-2.27 2.27,-2.27zm-11.4 0c1.25,0 2.27,1.02 2.27,2.27 0,1.25 -1.02,2.27 -2.27,2.27 -1.25,0 -2.27,-1.02 -2.27,-2.27 0,-1.25 1.02,-2.27 2.27,-2.27zm-11.39 0c1.25,0 2.27,1.02 2.27,2.27 0,1.25 -1.02,2.27 -2.27,2.27 -1.25,0 -2.27,-1.02 -2.27,-2.27 0,-1.25 1.02,-2.27 2.27,-2.27z"/>
  <path class="fil1" d="M48.02 85.56l47.49 0c2.29,0 4.16,1.87 4.16,4.16l0 9.23c0,2.29 -1.87,4.16 -4.16,4.16l-47.49 0c-2.29,0 -4.16,-1.87 -4.16,-4.16l0 -9.23c0,-2.29 1.87,-4.16 4.16,-4.16zm40.84 6.51c1.25,0 2.27,1.01 2.27,2.27 0,1.25 -1.02,2.27 -2.27,2.27 -1.25,0 -2.27,-1.02 -2.27,-2.27 0,-1.25 1.02,-2.27 2.27,-2.27zm-11.4 0c1.25,0 2.27,1.01 2.27,2.27 0,1.25 -1.02,2.27 -2.27,2.27 -1.25,0 -2.27,-1.02 -2.27,-2.27 0,-1.25 1.02,-2.27 2.27,-2.27zm-11.4 0c1.25,0 2.27,1.01 2.27,2.27 0,1.25 -1.02,2.27 -2.27,2.27 -1.25,0 -2.27,-1.02 -2.27,-2.27 0,-1.25 1.02,-2.27 2.27,-2.27zm-11.39 0c1.25,0 2.27,1.01 2.27,2.27 0,1.25 -1.02,2.27 -2.27,2.27 -1.25,0 -2.27,-1.02 -2.27,-2.27 0,-1.25 1.02,-2.27 2.27,-2.27z"/>
  <path class="fil1" d="M176.02 142.29l-24.55 -24.55c-1.82,-1.82 -4.19,-2.74 -6.57,-2.78 9.21,-13.73 7.76,-32.53 -4.36,-44.65 -13.77,-13.77 -36.18,-13.77 -49.95,0 -13.77,13.77 -13.77,36.18 0,49.95 12.12,12.12 30.92,13.57 44.65,4.36 0.04,2.38 0.96,4.75 2.78,6.57l24.55 24.55c3.71,3.71 9.74,3.71 13.45,0 3.71,-3.71 3.71,-9.74 0,-13.45z"/>
  <path class="fil1" d="M48.02 107.08l47.49 0c2.29,0 4.16,1.87 4.16,4.16l0 9.23c0,2.29 -1.87,4.16 -4.16,4.16l-47.49 0c-2.29,0 -4.16,-1.87 -4.16,-4.16l0 -9.23c0,-2.29 1.87,-4.16 4.16,-4.16zm40.84 6.51c1.25,0 2.27,1.01 2.27,2.27 0,1.25 -1.02,2.27 -2.27,2.27 -1.25,0 -2.27,-1.02 -2.27,-2.27 0,-1.25 1.02,-2.27 2.27,-2.27zm-11.4 0c1.25,0 2.27,1.01 2.27,2.27 0,1.25 -1.02,2.27 -2.27,2.27 -1.25,0 -2.27,-1.02 -2.27,-2.27 0,-1.25 1.02,-2.27 2.27,-2.27zm-11.4 0c1.25,0 2.27,1.01 2.27,2.27 0,1.25 -1.02,2.27 -2.27,2.27 -1.25,0 -2.27,-1.02 -2.27,-2.27 0,-1.25 1.02,-2.27 2.27,-2.27zm-11.39 0c1.25,0 2.27,1.01 2.27,2.27 0,1.25 -1.02,2.27 -2.27,2.27 -1.25,0 -2.27,-1.02 -2.27,-2.27 0,-1.25 1.02,-2.27 2.27,-2.27z"/>
  <path class="fil2" d="M132.85 112.57c-9.53,9.53 -25.04,9.53 -34.58,0 -9.53,-9.53 -9.53,-25.04 0,-34.58 9.53,-9.53 25.05,-9.53 34.58,0 9.53,9.53 9.53,25.04 0,34.58z"/>
 </g>
</svg>
