<?xml version="1.0" encoding="UTF-8"?>
<!DOCTYPE svg PUBLIC "-//W3C//DTD SVG 1.1//EN" "http://www.w3.org/Graphics/SVG/1.1/DTD/svg11.dtd">
<!-- Creator: CorelDRAW -->
<svg xmlns="http://www.w3.org/2000/svg" xml:space="preserve" width="10.861mm" height="12.42mm" version="1.1" style="shape-rendering:geometricPrecision; text-rendering:geometricPrecision; image-rendering:optimizeQuality; fill-rule:evenodd; clip-rule:evenodd"
viewBox="0 0 117.69 134.59"
 xmlns:xlink="http://www.w3.org/1999/xlink"
 xmlns:xodm="http://www.corel.com/coreldraw/odm/2003">
 <defs>
  <style type="text/css">
   <![CDATA[
    .fil0 {fill:gray}
   ]]>
  </style>
 </defs>
 <g id="Camada_x0020_1">
  <metadata id="CorelCorpID_0Corel-Layer"/>
  <path class="fil0" d="M1.15 95.45l15.29 -15.29c3.03,-3.03 8.56,-5.32 12.84,-5.32l40.09 0c5.42,0 9.83,4.41 9.83,9.83l0 1.18c0,5.42 -4.41,9.83 -9.83,9.83l-10.56 0 2.09 2.09c1.43,1.43 4.67,2.51 6.67,2.22l33.72 -4.82c4.44,-0.63 9.77,0.88 12.41,3.52 1.64,1.64 2.34,3.82 1.92,5.99 -0.49,2.55 -2.43,4.72 -5.33,5.96l-34.56 14.81c-3.78,1.62 -9.65,2.09 -13.64,1.09l-14.5 -3.63c-3.39,-0.85 -8.55,-2.62 -11.75,-4.04l-3.83 -1.7c-1.42,-0.63 -3.83,-0.12 -4.88,1.02l-13.84 15.11c-0.78,0.85 -1.84,1.27 -2.9,1.27 -0.95,0 -1.9,-0.34 -2.65,-1.03 -1.6,-1.47 -1.71,-3.95 -0.24,-5.55l13.84 -15.11c3.3,-3.61 9.39,-4.88 13.86,-2.89l3.83 1.7c2.75,1.22 7.55,2.87 10.47,3.6l14.5 3.62c2.32,0.58 6.44,0.25 8.64,-0.69l34.27 -14.69c-1.2,-0.47 -2.97,-0.81 -4.51,-0.59l-33.72 4.82c-4.44,0.64 -10.17,-1.28 -13.34,-4.45l-4.63 -4.63c-3.23,-3.23 -2.52,-6.13 -2.06,-7.23 0.46,-1.1 2,-3.65 6.57,-3.65l14.15 0c1.07,0 1.97,-0.9 1.97,-1.96l0 -1.18c0,-1.07 -0.9,-1.97 -1.97,-1.97l-40.09 0c-2.19,0 -5.73,1.47 -7.28,3.02l-15.29 15.29c-1.54,1.53 -4.02,1.53 -5.56,0 -1.54,-1.53 -1.54,-4.02 -0,-5.56z"/>
  <path class="fil0" d="M108.71 38.25c-1.03,-1.21 -2.19,-2.31 -3.47,-3.26l0.9 -3.47c0.29,-1.14 -0.31,-2.3 -1.4,-2.73l-5.07 -1.95c-1.09,-0.42 -2.32,0.05 -2.86,1.08l-1.66 3.15c-1.65,-0.17 -3.31,-0.14 -4.95,0.09l-1.84 -3.12c-0.6,-1.01 -1.85,-1.41 -2.91,-0.94l-4.97 2.21c-1.06,0.47 -1.61,1.67 -1.26,2.79l1.04 3.33c-1.38,1.1 -2.61,2.37 -3.66,3.79l-3.34 -0.86c-1.14,-0.29 -2.3,0.31 -2.72,1.4l-1.95 5.07c-0.42,1.09 0.04,2.32 1.08,2.86l3 1.58c-0.19,1.73 -0.16,3.48 0.11,5.21l-2.81 1.66c-1.01,0.6 -1.41,1.85 -0.94,2.91l2.2 4.97c0.47,1.06 1.67,1.61 2.79,1.26l3.07 -0.95c1.07,1.34 2.32,2.53 3.69,3.56l-0.79 3.07c-0.29,1.14 0.31,2.3 1.4,2.72l5.05 1.95c1.09,0.42 2.32,-0.04 2.87,-1.08l1.43 -2.72c1.8,0.2 3.62,0.17 5.41,-0.11l1.6 2.71c0.6,1.01 1.85,1.41 2.91,0.94l4.97 -2.2c1.06,-0.47 1.61,-1.67 1.26,-2.79l-0.93 -3c1.45,-1.17 2.73,-2.53 3.8,-4.06l3.09 0.8c1.14,0.29 2.3,-0.31 2.72,-1.4l1.95 -5.07c0.42,-1.09 -0.04,-2.32 -1.08,-2.87l-2.99 -1.57c0.15,-1.72 0.08,-3.45 -0.21,-5.15l2.91 -1.71c1.01,-0.6 1.41,-1.85 0.94,-2.91l-2.2 -4.97c-0.47,-1.06 -1.67,-1.61 -2.79,-1.26l-3.39 1.06zm-12.03 21.41c-4.52,2.01 -9.84,-0.04 -11.85,-4.57 -2.01,-4.52 0.04,-9.84 4.57,-11.85 4.52,-2.01 9.84,0.04 11.85,4.56 2.01,4.53 -0.04,9.84 -4.57,11.85z"/>
  <path class="fil0" d="M41.1 66.79l3.6 1.05c1.11,0.32 2.28,-0.24 2.73,-1.3l0.85 -2c1.48,0.05 2.97,-0.11 4.41,-0.46l1.29 1.82c0.67,0.94 1.94,1.23 2.95,0.68l3.29 -1.81c1.01,-0.56 1.45,-1.78 1.02,-2.85l-0.83 -2.06c1.1,-1.06 2.05,-2.26 2.82,-3.57l2.24 0.38c1.14,0.19 2.24,-0.5 2.56,-1.61l1.04 -3.62c0.32,-1.11 -0.24,-2.28 -1.3,-2.73l-2.23 -0.94c0,-1.41 -0.18,-2.82 -0.52,-4.19l1.97 -1.4c0.94,-0.67 1.23,-1.94 0.68,-2.95l-1.81 -3.29c-0.56,-1.01 -1.78,-1.45 -2.85,-1.01l-2.37 0.96c-0.92,-0.93 -1.94,-1.74 -3.06,-2.43l0.43 -2.55c0.19,-1.14 -0.5,-2.24 -1.6,-2.56l-3.6 -1.05c-1.11,-0.32 -2.28,0.24 -2.73,1.3l-1 2.37c-1.36,-0.03 -2.71,0.11 -4.03,0.41l-1.51 -2.13c-0.67,-0.94 -1.94,-1.23 -2.95,-0.68l-3.29 1.81c-1.01,0.56 -1.45,1.78 -1.02,2.85l0.94 2.33c-1.05,0.99 -1.97,2.12 -2.73,3.34l-2.44 -0.41c-1.14,-0.19 -2.24,0.5 -2.56,1.6l-1.05 3.6c-0.32,1.11 0.24,2.28 1.3,2.73l2.24 0.94c-0.03,1.43 0.11,2.86 0.45,4.24l-1.89 1.35c-0.94,0.67 -1.23,1.94 -0.68,2.95l1.81 3.29c0.56,1.01 1.78,1.45 2.85,1.02l2.12 -0.86c0.97,1.02 2.06,1.91 3.26,2.65l-0.38 2.22c-0.21,1.15 0.48,2.25 1.59,2.58zm4.11 -25.48c3.55,-1.95 8.03,-0.65 9.98,2.91 1.95,3.55 0.65,8.03 -2.91,9.98 -3.55,1.95 -8.03,0.65 -9.98,-2.91 -1.95,-3.55 -0.65,-8.03 2.91,-9.98z"/>
  <path class="fil0" d="M83.36 13.38c1,-0.57 1.42,-1.81 0.95,-2.87l-0.91 -2.11c-0.45,-1.07 -1.63,-1.62 -2.74,-1.28l-1.64 0.49c-0.68,-0.83 -1.44,-1.56 -2.29,-2.2l0.45 -1.68c0.3,-1.12 -0.27,-2.28 -1.35,-2.71l-2.14 -0.85c-1.08,-0.43 -2.29,0.01 -2.85,1.03l-0.81 1.51c-1.1,-0.13 -2.21,-0.13 -3.3,0.02l-0.88 -1.52c-0.57,-1 -1.81,-1.41 -2.87,-0.95l-2.12 0.91c-1.06,0.45 -1.61,1.63 -1.28,2.74l0.48 1.6c-0.93,0.72 -1.76,1.56 -2.48,2.49l-1.58 -0.42c-1.12,-0.3 -2.28,0.28 -2.71,1.35l-0.85 2.14c-0.43,1.08 0.01,2.29 1.03,2.85l1.4 0.76c-0.14,1.16 -0.14,2.32 0.03,3.47l-1.32 0.75c-1,0.57 -1.42,1.81 -0.95,2.87l0.91 2.12c0.45,1.06 1.63,1.61 2.74,1.28l1.42 -0.42c0.71,0.9 1.53,1.71 2.43,2.41l-0.38 1.4c-0.3,1.12 0.27,2.28 1.35,2.71l2.14 0.85c1.08,0.43 2.29,-0.01 2.85,-1.03l0.66 -1.22c1.2,0.15 2.41,0.14 3.61,-0.03l0.71 1.25c0.57,1 1.81,1.42 2.87,0.96l2.12 -0.91c1.06,-0.45 1.61,-1.63 1.28,-2.74l-0.41 -1.37c0.97,-0.77 1.84,-1.67 2.57,-2.67l1.42 0.39c1.12,0.3 2.28,-0.27 2.71,-1.35l0.86 -2.15c0.43,-1.08 -0.01,-2.29 -1.03,-2.85l-1.4 -0.75c0.11,-1.15 0.08,-2.3 -0.1,-3.44l1.39 -0.79zm-12.53 8.4c-3.03,1.31 -6.56,-0.11 -7.86,-3.14 -1.31,-3.03 0.11,-6.56 3.14,-7.86 3.03,-1.31 6.56,0.11 7.86,3.14 1.31,3.03 -0.11,6.56 -3.14,7.86z"/>
 </g>
</svg>
