<?xml version="1.0" encoding="UTF-8"?>
<!DOCTYPE svg PUBLIC "-//W3C//DTD SVG 1.1//EN" "http://www.w3.org/Graphics/SVG/1.1/DTD/svg11.dtd">
<!-- Creator: CorelDRAW -->
<svg xmlns="http://www.w3.org/2000/svg" xml:space="preserve" width="12.5348mm" height="12.3151mm" version="1.1" style="shape-rendering:geometricPrecision; text-rendering:geometricPrecision; image-rendering:optimizeQuality; fill-rule:evenodd; clip-rule:evenodd"
viewBox="0 0 154.19 151.49"
 xmlns:xlink="http://www.w3.org/1999/xlink"
 xmlns:xodm="http://www.corel.com/coreldraw/odm/2003">
 <defs>
  <style type="text/css">
   <![CDATA[
    .str0 {stroke:gray;stroke-width:5.21;stroke-miterlimit:22.9256}
    .str1 {stroke:gray;stroke-width:5.21;stroke-linecap:round;stroke-linejoin:round;stroke-miterlimit:22.9256}
    .fil2 {fill:none}
    .fil1 {fill:gray}
    .fil0 {fill:gray;fill-rule:nonzero}
   ]]>
  </style>
 </defs>
 <g id="Camada_x0020_1">
  <metadata id="CorelCorpID_0Corel-Layer"/>
  <path class="fil0" d="M89.52 78.74c-2.94,-2.94 -7.01,-4.75 -11.52,-4.75 -4.51,0 -8.58,1.82 -11.52,4.75l-0.02 0.02c-2.94,2.94 -4.75,7.01 -4.75,11.52 0,4.51 1.82,8.58 4.75,11.52l0.02 0.01c2.94,2.94 7.01,4.76 11.52,4.76 4.51,0 8.58,-1.82 11.52,-4.76l0.01 -0.01c2.94,-2.94 4.76,-7.01 4.76,-11.52 0,-4.51 -1.82,-8.58 -4.76,-11.52l-0.01 -0.02z"/>
  <path class="fil0" d="M49.1 151.2c-1.53,0 -2.77,-1.52 -2.77,-3.39 0,-10.7 3.55,-20.39 9.28,-27.4 5.73,-7.01 13.65,-11.35 22.39,-11.35 8.74,0 16.66,4.34 22.39,11.35 5.73,7.01 9.28,16.7 9.28,27.4l-0.01 0.35c-0.02,1.86 -1.27,3.35 -2.79,3.33l-57.77 -0.29z"/>
  <path class="fil1" d="M27.77 105.8c5.88,0 10.65,4.77 10.65,10.65 0,5.88 -4.77,10.65 -10.65,10.65 -5.88,0 -10.65,-4.77 -10.65,-10.65 0,-5.88 4.77,-10.65 10.65,-10.65z"/>
  <path class="fil1" d="M13.29 52.13c7.34,0 13.29,5.95 13.29,13.29 0,7.34 -5.95,13.29 -13.29,13.29 -7.34,0 -13.29,-5.95 -13.29,-13.29 0,-7.34 5.95,-13.29 13.29,-13.29z"/>
  <path class="fil1" d="M110.66 1.93c7.34,0 13.29,5.95 13.29,13.29 0,7.34 -5.95,13.29 -13.29,13.29 -7.34,0 -13.29,-5.95 -13.29,-13.29 0,-7.34 5.95,-13.29 13.29,-13.29z"/>
  <path class="fil1" d="M136.72 99.55c7.34,0 13.29,5.95 13.29,13.29 0,7.34 -5.95,13.29 -13.29,13.29 -7.34,0 -13.29,-5.95 -13.29,-13.29 0,-7.34 5.95,-13.29 13.29,-13.29z"/>
  <path class="fil1" d="M143.54 42.93c5.88,0 10.65,4.77 10.65,10.65 0,5.88 -4.77,10.65 -10.65,10.65 -5.88,0 -10.65,-4.77 -10.65,-10.65 0,-5.88 4.77,-10.65 10.65,-10.65z"/>
  <path class="fil1" d="M50.26 0c5.88,0 10.65,4.77 10.65,10.65 0,5.88 -4.77,10.65 -10.65,10.65 -5.88,0 -10.65,-4.77 -10.65,-10.65 0,-5.88 4.77,-10.65 10.65,-10.65z"/>
  <path class="fil2 str0" d="M50.26 10.65c41.32,19.33 70.36,52.88 86.46,102.19 6.61,-19.03 8.38,-38.86 6.81,-59.25 -7.21,-16.2 -18.17,-28.98 -32.88,-38.37 -19.19,-6.83 -39.16,-9.32 -60.4,-4.56 -17.85,14.46 -30.02,32.82 -36.97,54.77 0.11,18.1 5.51,34.98 14.48,51.03"/>
  <path class="fil2 str1" d="M143.54 53.59c-10.5,12.92 -19.61,22.62 -25.98,27.94"/>
  <path class="fil2 str0" d="M110.66 15.21c-38.28,10.57 -70.67,27.37 -97.37,50.21"/>
  <path class="fil2 str0" d="M50.26 10.65c-13.3,34.95 -21.46,70.18 -22.49,105.8"/>
  <path class="fil2 str1" d="M13.29 65.42c6.34,8.69 14.19,17.38 23.26,26.07"/>
  <path class="fil2 str0" d="M13.29 65.42c37.76,-15.92 80.91,-20.45 130.25,-11.84"/>
 </g>
</svg>
