<?xml version="1.0" encoding="UTF-8"?>
<!DOCTYPE svg PUBLIC "-//W3C//DTD SVG 1.1//EN" "http://www.w3.org/Graphics/SVG/1.1/DTD/svg11.dtd">
<!-- Creator: CorelDRAW -->
<svg xmlns="http://www.w3.org/2000/svg" xml:space="preserve" width="10.1603mm" height="8.5761mm" version="1.1" style="shape-rendering:geometricPrecision; text-rendering:geometricPrecision; image-rendering:optimizeQuality; fill-rule:evenodd; clip-rule:evenodd"
viewBox="0 0 270.05 227.94"
 xmlns:xlink="http://www.w3.org/1999/xlink"
 xmlns:xodm="http://www.corel.com/coreldraw/odm/2003">
 <defs>
  <style type="text/css">
   <![CDATA[
    .fil0 {fill:gray}
   ]]>
  </style>
 </defs>
 <g id="Camada_x0020_1">
  <metadata id="CorelCorpID_0Corel-Layer"/>
  <g id="_1635660021008">
   <path class="fil0" d="M237.03 182.89c-2.9,0 -5.24,-2.34 -5.24,-5.24l0 -52.2 -104.27 0c-2.9,0 -5.24,-2.34 -5.24,-5.24 0,-2.9 2.34,-5.24 5.24,-5.24l109.51 0c2.9,0 5.24,2.34 5.24,5.24l0 57.4c-0.05,2.98 -2.34,5.28 -5.24,5.28z"/>
   <path class="fil0" d="M160.76 55.46c5.1,0 9.24,-4.14 9.24,-9.25l0 -36.96c0,-5.1 -4.14,-9.25 -9.24,-9.25l-51.48 0c-5.1,0 -9.24,4.15 -9.24,9.25l0 36.96c0,5.11 4.14,9.25 9.24,9.25 29.94,0 21.54,0 51.48,0z"/>
   <path class="fil0" d="M34.14 182.89c2.89,0 5.24,-2.34 5.24,-5.24l0 -52.2 119.49 0c2.9,0 5.24,-2.34 5.24,-5.24 0,-2.9 -2.34,-5.24 -5.24,-5.24l-124.72 0c-2.9,0 -5.24,2.34 -5.24,5.24l0 57.4c0.05,2.98 2.34,5.28 5.24,5.28z"/>
   <path class="fil0" d="M135.03 190.5c2.9,0 5.24,-2.34 5.24,-5.24l0 -139.86 -5.24 -0.05c-2.9,0 -5.24,2.34 -5.24,5.24l0 134.63c0.04,2.98 2.34,5.28 5.24,5.28z"/>
   <path class="fil0" d="M160.76 227.94c5.1,0 9.24,-4.14 9.24,-9.25l0 -36.96c0,-5.11 -4.14,-9.25 -9.24,-9.25l-51.48 0c-5.1,0 -9.24,4.15 -9.24,9.25l0 36.96c0,5.11 4.14,9.25 9.24,9.25 29.94,0 21.54,0 51.48,0z"/>
   <path class="fil0" d="M9.25 227.94c-5.1,0 -9.25,-4.14 -9.25,-9.25l0 -36.96c0,-5.11 4.14,-9.25 9.25,-9.25l51.47 0c5.1,0 9.25,4.15 9.25,9.25l0 36.96c0,5.11 -4.14,9.25 -9.25,9.25 -29.94,0 -21.54,0 -51.47,0z"/>
   <path class="fil0" d="M209.33 227.94c-5.1,0 -9.25,-4.14 -9.25,-9.25l0 -36.96c0,-5.11 4.14,-9.25 9.25,-9.25l51.47 0c5.1,0 9.25,4.15 9.25,9.25l0 36.96c0,5.11 -4.14,9.25 -9.25,9.25 -29.94,0 -21.54,0 -51.47,0z"/>
  </g>
 </g>
</svg>
