<?xml version="1.0" encoding="utf-8"?>
<svg xmlns="http://www.w3.org/2000/svg" viewBox="1.7831 1.78 201.0026 171.9005" width="14.3133mm" height="12.2415mm" preserveAspectRatio="none"><defs><style type="text/css">
   
    .str0 {stroke:gray;stroke-width:3.57;stroke-linecap:round;stroke-linejoin:round;stroke-miterlimit:22.9256}
    .fil2 {fill:none}
    .fil3 {fill:none;fill-rule:nonzero}
    .fil1 {fill:gray}
    .fil0 {fill:gray;fill-rule:nonzero}
   
  </style></defs><g id="Camada_x0020_1"><path class="fil0" d="M111.58 101.85c-2.92,-2.92 -6.98,-4.73 -11.47,-4.73 -4.49,0 -8.54,1.81 -11.47,4.73l-0.02 0.01c-2.92,2.92 -4.73,6.98 -4.73,11.47 0,4.49 1.81,8.54 4.73,11.47l0.02 0.02c2.92,2.92 6.98,4.73 11.47,4.73 4.49,0 8.54,-1.81 11.47,-4.73l0.01 -0.02c2.93,-2.92 4.73,-6.98 4.73,-11.47 0,-4.49 -1.81,-8.54 -4.73,-11.47l-0.01 -0.01z"/><path class="fil0" d="M71.34 173.39c-1.52,0 -2.75,-1.51 -2.75,-3.37 0,-10.65 3.53,-20.29 9.23,-27.28 5.7,-6.98 13.59,-11.3 22.29,-11.3 8.71,0 16.59,4.32 22.29,11.3 5.7,6.98 9.23,16.62 9.23,27.28l-0.01 0.35c-0.02,1.85 -1.26,3.34 -2.78,3.31l-57.51 -0.29z"/><path class="fil1" d="M101.74 37.71c-0.54,0.02 -1.08,0.03 -1.62,0.03 -0.54,0 -1.08,-0.01 -1.63,-0.03 -4.57,-0.13 -8.21,-0.77 -10.84,-1.69 -1.23,-0.41 -2.29,-0.9 -3.1,-1.46l0 4.43 0 0.31 0 0.31 0 0.8c1.77,1.85 7.72,3.56 15.57,3.56 7.85,0 13.79,-1.71 15.57,-3.56l0 -0.8 0 -0.31 0 -0.31 0 -4.43c-0.82,0.56 -1.89,1.06 -3.13,1.47 -2.62,0.92 -6.26,1.56 -10.81,1.69zm-17.19 -11.32l0 4.43 0 0.31 0 0.31 0 0.8c1.64,1.71 6.87,3.3 13.88,3.53 0.07,0 0.15,0 0.22,0.01 0.2,0.01 0.41,0.01 0.61,0.02 0.28,0 0.57,0.01 0.86,0.01 0.29,0 0.58,-0 0.86,-0.01 0.21,-0 0.41,-0.01 0.61,-0.02 0.07,0 0.14,-0 0.22,-0 7.01,-0.23 12.23,-1.82 13.88,-3.53l0 -0.8 0 -0.31 0 -0.31 0 -4.43c-3.03,2.08 -9.44,3.18 -15.57,3.18 -6.13,0 -12.54,-1.1 -15.57,-3.18zm31.05 -3.95c-0.7,-2.68 -6.07,-5.32 -15.48,-5.32 -9.39,0 -14.75,2.63 -15.48,5.3 -0.05,0.09 -0.09,0.19 -0.09,0.31l0 0.31 0 1.13c1.77,1.84 7.67,3.54 15.57,3.54 7.9,0 13.8,-1.7 15.57,-3.54l0 -1.13 0 -0.31c0,-0.11 -0.04,-0.2 -0.08,-0.29zm-31.05 20.21l0 5.11c0,0.1 0.03,0.2 0.07,0.28 0.73,3.05 7.31,5.32 15.49,5.32 8.16,0 14.73,-2.27 15.49,-5.3 0.05,-0.09 0.08,-0.19 0.08,-0.3l0 -5.1c-2.57,1.81 -7.88,3.24 -15.57,3.24 -7.69,0 -12.99,-1.42 -15.57,-3.24z"/><path class="fil2 str0" d="M100.12 1.78c18.95,0 34.3,15.36 34.3,34.3 0,16.33 -11.42,30 -26.71,33.46l-6.34 16.03 -7.41 -15.74c-16.01,-2.9 -28.15,-16.91 -28.15,-33.75 0,-18.95 15.36,-34.3 34.3,-34.3z"/><path class="fil1" d="M178.56 85.44l-9.34 0c-1.3,0 -2.36,-1.06 -2.36,-2.36 0,-1.3 1.06,-2.36 2.36,-2.36l9.34 0c1.31,0 2.36,1.06 2.36,2.36 0,1.31 -1.06,2.36 -2.36,2.36zm-15.09 -7.15l-7.74 6.58c-0.99,0.85 -2.49,0.73 -3.33,-0.27 -0.85,-0.99 -0.72,-2.49 0.27,-3.33l5.62 -4.78 -5.62 -4.79c-0.99,-0.85 -1.11,-2.34 -0.27,-3.33 0.85,-1 2.34,-1.12 3.33,-0.27l7.74 6.59c1.11,0.94 1.11,2.66 0,3.6zm22.33 -17.61l-38.85 0c-0.75,0 -1.36,0.61 -1.36,1.36l0 9.46 0 1.29 0 18.16c0,0.75 0.61,1.35 1.36,1.35l38.85 0c0.75,0 1.35,-0.61 1.35,-1.35l0 -18.16 0 -1.29 0 -9.46c0,-0.75 -0.61,-1.36 -1.35,-1.36z"/><path class="fil2 str0" d="M172.86 41.33c19.7,3.47 32.84,22.25 29.37,41.95 -3.47,19.69 -22.25,32.84 -41.95,29.37 -6.86,-1.21 -12.92,-4.28 -17.77,-8.59l-21.02 6.8 11.66 -19.9c-2.59,-6.18 -3.5,-13.16 -2.25,-20.25 3.47,-19.7 22.25,-32.84 41.95,-29.37z"/><path class="fil3 str0" d="M30.13 43.02c18.66,-3.29 36.45,9.17 39.74,27.82 1.46,8.3 -0.19,16.42 -4.11,23.17l9.81 16.74 -19.27 -6.23c-4.09,2.99 -8.92,5.12 -14.25,6.06 -18.66,3.29 -36.45,-9.17 -39.74,-27.83 -3.29,-18.66 9.17,-36.45 27.82,-39.74z"/><path class="fil1" d="M55.13 76.56c0.02,-5.33 -4.27,-9.66 -9.6,-9.68 -4.26,-0.02 -7.89,2.73 -9.18,6.56l-21.16 -0.09 -3.07 3.03 5.88 5.95 2.89 -2.87 2.87 2.89 2.89 -2.87 2.87 2.89 2.89 -2.86 3.92 0.02c1.26,3.84 4.86,6.62 9.12,6.63 5.32,0.02 9.66,-4.27 9.68,-9.6zm-7.26 2.88c-1.61,-0.01 -2.91,-1.32 -2.9,-2.93 0.01,-1.61 1.32,-2.91 2.93,-2.9 1.61,0.01 2.91,1.32 2.9,2.93 -0.01,1.61 -1.32,2.91 -2.93,2.9z"/></g></svg>