<?xml version="1.0" encoding="UTF-8"?>
<!DOCTYPE svg PUBLIC "-//W3C//DTD SVG 1.1//EN" "http://www.w3.org/Graphics/SVG/1.1/DTD/svg11.dtd">
<!-- Creator: CorelDRAW -->
<svg xmlns="http://www.w3.org/2000/svg" xml:space="preserve" width="10.16mm" height="3.2849mm" version="1.1" style="shape-rendering:geometricPrecision; text-rendering:geometricPrecision; image-rendering:optimizeQuality; fill-rule:evenodd; clip-rule:evenodd"
viewBox="0 0 183.4 59.3"
 xmlns:xlink="http://www.w3.org/1999/xlink"
 xmlns:xodm="http://www.corel.com/coreldraw/odm/2003">
 <defs>
  <style type="text/css">
   <![CDATA[
    .fil0 {fill:gray}
   ]]>
  </style>
 </defs>
 <g id="Camada_x0020_1">
  <metadata id="CorelCorpID_0Corel-Layer"/>
  <path class="fil0" d="M10.27 0l162.85 0c5.65,0 10.27,4.62 10.27,10.27l0 38.75c0,5.65 -4.62,10.28 -10.27,10.28l-162.85 0c-5.65,0 -10.27,-4.62 -10.27,-10.28l0 -38.75c0,-5.65 4.62,-10.27 10.27,-10.27zm16.95 14.7c2.57,0 4.65,2.08 4.65,4.65 0,2.57 -2.08,4.65 -4.65,4.65 -2.57,0 -4.65,-2.08 -4.65,-4.65 0,-2.57 2.08,-4.65 4.65,-4.65zm-27.23 14.95l183.4 0 -183.4 0z"/>
 </g>
</svg>
