<?xml version="1.0" encoding="UTF-8"?>
<!DOCTYPE svg PUBLIC "-//W3C//DTD SVG 1.1//EN" "http://www.w3.org/Graphics/SVG/1.1/DTD/svg11.dtd">
<!-- Creator: CorelDRAW -->
<svg xmlns="http://www.w3.org/2000/svg" xml:space="preserve" width="7.6198mm" height="8.8698mm" version="1.1" style="shape-rendering:geometricPrecision; text-rendering:geometricPrecision; image-rendering:optimizeQuality; fill-rule:evenodd; clip-rule:evenodd"
viewBox="0 0 140.96 164.08"
 xmlns:xlink="http://www.w3.org/1999/xlink"
 xmlns:xodm="http://www.corel.com/coreldraw/odm/2003">
 <defs>
  <style type="text/css">
   <![CDATA[
    .fil0 {fill:gray}
   ]]>
  </style>
 </defs>
 <g id="Camada_x0020_1">
  <metadata id="CorelCorpID_0Corel-Layer"/>
  <path class="fil0" d="M77.83 93.23c-2.45,0.07 -4.91,0.12 -7.35,0.12 -2.45,0 -4.91,-0.04 -7.37,-0.12 -20.7,-0.57 -37.19,-3.49 -49.06,-7.66 -5.58,-1.88 -10.36,-4.1 -14.05,-6.63l0 20.05 0 1.41 0 1.41 0 3.64c8.02,8.37 34.94,16.1 70.48,16.1 35.54,0 62.45,-7.73 70.48,-16.1l0 -3.64 0 -1.41 0 -1.41 0 -20.05c-3.72,2.55 -8.54,4.79 -14.17,6.67 -11.87,4.15 -28.33,7.05 -48.96,7.62zm-77.83 -51.26l0 20.05 0 1.41 0 1.41 0 3.64c7.44,7.76 31.1,14.97 62.83,15.98 0.32,0.01 0.66,0.01 0.98,0.02 0.92,0.03 1.84,0.05 2.77,0.07 1.29,0.02 2.59,0.03 3.9,0.03 1.31,0 2.61,-0.01 3.9,-0.03 0.93,-0.01 1.85,-0.04 2.77,-0.06 0.33,-0.01 0.66,-0.02 0.98,-0.03 31.72,-1.01 55.39,-8.22 62.83,-15.98l0 -3.64 0 -1.41 0 -1.41 0 -20.05c-13.72,9.42 -42.73,14.41 -70.48,14.41 -27.75,0 -56.76,-4.99 -70.48,-14.41zm140.58 -17.89c-3.16,-12.13 -27.49,-24.08 -70.1,-24.08 -42.5,0 -66.8,11.9 -70.06,23.99 -0.24,0.41 -0.41,0.87 -0.41,1.38l0 1.41 0 5.09c8,8.35 34.72,16.05 70.48,16.05 35.75,0 62.48,-7.7 70.48,-16.05l0 -5.09 0 -1.41c0,-0.47 -0.16,-0.9 -0.38,-1.29zm-140.58 91.5l0 23.12c0,0.46 0.12,0.89 0.33,1.27 3.33,13.8 33.12,24.1 70.15,24.1 36.95,0 66.69,-10.26 70.13,-24.01 0.23,-0.41 0.35,-0.87 0.35,-1.37l0 -23.12c-11.66,8.21 -35.68,14.66 -70.48,14.66 -34.81,0 -58.82,-6.46 -70.48,-14.66z"/>
 </g>
</svg>
