<?xml version="1.0" encoding="UTF-8"?>
<!DOCTYPE svg PUBLIC "-//W3C//DTD SVG 1.1//EN" "http://www.w3.org/Graphics/SVG/1.1/DTD/svg11.dtd">
<!-- Creator: CorelDRAW -->
<svg xmlns="http://www.w3.org/2000/svg" xml:space="preserve" width="13.3469mm" height="9.0285mm" version="1.1" style="shape-rendering:geometricPrecision; text-rendering:geometricPrecision; image-rendering:optimizeQuality; fill-rule:evenodd; clip-rule:evenodd"
viewBox="0 0 177.05 119.76"
 xmlns:xlink="http://www.w3.org/1999/xlink"
 xmlns:xodm="http://www.corel.com/coreldraw/odm/2003">
 <defs>
  <style type="text/css">
   <![CDATA[
    .fil1 {fill:gray}
    .fil0 {fill:gray;fill-rule:nonzero}
   ]]>
  </style>
 </defs>
 <g id="Camada_x0020_1">
  <metadata id="CorelCorpID_0Corel-Layer"/>
  <g>
   <path class="fil0" d="M73.56 51.4c-1.48,0 -2.68,-1.08 -2.68,-2.41 0,-1.33 1.2,-2.41 2.68,-2.41l0 4.82zm100.8 0l-100.8 0 0 -4.82 100.8 0 0 4.82zm0 -4.82c1.48,0 2.68,1.08 2.68,2.41 0,1.33 -1.2,2.41 -2.68,2.41l0 -4.82z"/>
  </g>
  <path class="fil1" d="M143 32.84l21.31 0c0.74,0 1.34,0.6 1.34,1.34l0 5.07c0,0.74 -0.6,1.35 -1.34,1.35l-21.31 0c-0.74,0 -1.35,-0.61 -1.35,-1.35l0 -5.07c0,-0.74 0.61,-1.34 1.35,-1.34zm2.22 1.92c0.34,0 0.61,0.27 0.61,0.61 0,0.34 -0.27,0.61 -0.61,0.61 -0.34,0 -0.61,-0.27 -0.61,-0.61 0,-0.34 0.27,-0.61 0.61,-0.61zm-2.22 -10.64l21.31 0c0.74,0 1.34,0.61 1.34,1.35l0 5.07c0,0.74 -0.6,1.34 -1.34,1.34l-21.31 0c-0.74,0 -1.35,-0.6 -1.35,-1.34l0 -5.07c0,-0.74 0.61,-1.35 1.35,-1.35zm2.22 1.92c0.34,0 0.61,0.27 0.61,0.61 0,0.34 -0.27,0.61 -0.61,0.61 -0.34,0 -0.61,-0.27 -0.61,-0.61 0,-0.34 0.27,-0.61 0.61,-0.61zm-2.22 -10.64l21.31 0c0.74,0 1.34,0.61 1.34,1.35l0 5.07c0,0.74 -0.6,1.35 -1.34,1.35l-21.31 0c-0.74,0 -1.35,-0.61 -1.35,-1.35l0 -5.07c0,-0.74 0.61,-1.35 1.35,-1.35zm2.22 1.92c0.34,0 0.61,0.27 0.61,0.61 0,0.34 -0.27,0.61 -0.61,0.61 -0.34,0 -0.61,-0.27 -0.61,-0.61 0,-0.34 0.27,-0.61 0.61,-0.61z"/>
  <path class="fil1" d="M124.4 28.99c-0.38,0.01 -0.75,0.02 -1.13,0.02 -0.38,0 -0.75,-0.01 -1.13,-0.02 -3.17,-0.09 -5.7,-0.57 -7.52,-1.25 -0.86,-0.31 -1.59,-0.67 -2.15,-1.09l0 3.29 0 0.23 0 0.23 0 0.6c1.23,1.37 5.36,2.64 10.81,2.64 5.45,0 9.58,-1.26 10.81,-2.64l0 -0.6 0 -0.23 0 -0.23 0 -3.29c-0.57,0.42 -1.31,0.78 -2.17,1.09 -1.82,0.68 -4.34,1.16 -7.51,1.25zm-11.93 -8.4l0 3.29 0 0.23 0 0.23 0 0.6c1.14,1.27 4.77,2.45 9.63,2.62 0.05,0 0.1,0 0.15,0 0.14,0.01 0.28,0.01 0.42,0.01 0.2,0 0.4,0 0.6,0 0.2,0 0.4,-0 0.6,-0 0.14,-0 0.28,-0.01 0.42,-0.01 0.05,-0 0.1,-0 0.15,-0 4.86,-0.17 8.49,-1.35 9.63,-2.62l0 -0.6 0 -0.23 0 -0.23 0 -3.29c-2.1,1.55 -6.55,2.36 -10.81,2.36 -4.26,0 -8.7,-0.82 -10.81,-2.36zm21.56 -2.93c-0.49,-1.99 -4.21,-3.95 -10.75,-3.95 -6.52,0 -10.24,1.95 -10.74,3.93 -0.04,0.07 -0.06,0.14 -0.06,0.22l0 0.23 0 0.83c1.23,1.37 5.32,2.63 10.81,2.63 5.48,0 9.58,-1.26 10.81,-2.63l0 -0.83 0 -0.23c0,-0.08 -0.02,-0.15 -0.06,-0.21zm-21.56 14.99l0 3.79c0,0.08 0.02,0.15 0.05,0.21 0.51,2.26 5.08,3.95 10.76,3.95 5.67,0 10.22,-1.68 10.75,-3.94 0.03,-0.06 0.05,-0.14 0.05,-0.22l0 -3.79c-1.79,1.35 -5.47,2.4 -10.81,2.4 -5.34,0 -9.02,-1.06 -10.81,-2.4z"/>
  <path class="fil1" d="M41.35 53.13l11.67 0c2.96,0 5.8,0.57 8.4,1.61 6.69,2.23 26.82,19.52 34.05,24.78 1.79,-5.07 3.58,-10.14 5.37,-15.21 4.05,-15.13 24.3,-14.35 20.35,0.37 -4.42,11.81 -8.84,23.61 -13.26,35.42 -3.88,6.72 -11.71,8.74 -17.61,5.34l-14.41 -9.25 0 23.3 -0 0.27 -75.91 0 -0 -0.27 0 -7.4c0,-12.59 10.94,-58.96 41.35,-58.96z"/>
  <path class="fil1" d="M40.2 0c13.67,0 24.74,11.08 24.74,24.74 0,13.66 -11.08,24.74 -24.74,24.74 -13.66,0 -24.74,-11.08 -24.74,-24.74 0,-13.66 11.08,-24.74 24.74,-24.74z"/>
  <path class="fil1" d="M94.02 10.34c2.24,0 4.06,1.82 4.06,4.06 0,2.24 -1.82,4.06 -4.06,4.06 -2.24,0 -4.06,-1.82 -4.06,-4.06 0,-2.24 1.82,-4.06 4.06,-4.06z"/>
  <path class="fil1" d="M102.86 32.48c2.24,0 4.06,1.82 4.06,4.06 0,2.24 -1.82,4.06 -4.06,4.06 -2.24,0 -4.06,-1.82 -4.06,-4.06 0,-2.24 1.82,-4.06 4.06,-4.06z"/>
  <path class="fil1" d="M85.19 32.48c2.24,0 4.06,1.82 4.06,4.06 0,2.24 -1.82,4.06 -4.06,4.06 -2.24,0 -4.06,-1.82 -4.06,-4.06 0,-2.24 1.82,-4.06 4.06,-4.06z"/>
  <path class="fil0" d="M101.92 34.19l0 -7.13c0,-0.18 -0.07,-0.34 -0.19,-0.46 -0.12,-0.12 -0.28,-0.19 -0.45,-0.19l-14.38 0c-0.17,0 -0.34,0.07 -0.45,0.19 -0.12,0.12 -0.19,0.28 -0.19,0.46l0 7.13 -1.97 0 0 -7.13c0,-0.71 0.3,-1.37 0.77,-1.84 0.48,-0.48 1.13,-0.78 1.85,-0.78l14.38 0c0.72,0 1.37,0.3 1.85,0.77 0.47,0.47 0.77,1.13 0.77,1.85l0 7.13 -1.97 0z"/>
  <polygon class="fil0" points="93.04,25.45 93.04,16.92 95.01,16.92 95.01,25.45 "/>
 </g>
</svg>
