<?xml version="1.0" encoding="UTF-8"?>
<!DOCTYPE svg PUBLIC "-//W3C//DTD SVG 1.1//EN" "http://www.w3.org/Graphics/SVG/1.1/DTD/svg11.dtd">
<!-- Creator: CorelDRAW -->
<svg xmlns="http://www.w3.org/2000/svg" xml:space="preserve" width="10.7356mm" height="7.4572mm" version="1.1" style="shape-rendering:geometricPrecision; text-rendering:geometricPrecision; image-rendering:optimizeQuality; fill-rule:evenodd; clip-rule:evenodd"
viewBox="0 0 306.11 212.63"
 xmlns:xlink="http://www.w3.org/1999/xlink"
 xmlns:xodm="http://www.corel.com/coreldraw/odm/2003">
 <defs>
  <style type="text/css">
   <![CDATA[
    .fil0 {fill:gray}
   ]]>
  </style>
 </defs>
 <g id="Camada_x0020_1">
  <metadata id="CorelCorpID_0Corel-Layer"/>
  <g id="_1636902241504">
   <path class="fil0" d="M197.52 160.6l21.74 0 14.66 0 0 20.68 20.31 0c3.38,0 6.15,2.79 6.15,6.15l0 5.48c0,3.36 -2.79,6.15 -6.15,6.15l-34.97 0 -21.74 0 -34.97 0c-3.36,0 -6.15,-2.79 -6.15,-6.15l0 -5.48c0,-3.36 2.77,-6.15 6.15,-6.15l20.31 0 0 -20.68 14.66 0z"/>
   <path class="fil0" d="M190.28 18.26l36.23 0 59.77 0c5.45,0 10.41,2.26 13.99,5.83 3.6,3.6 5.84,8.58 5.84,14l0 103.24c0,5.41 -2.25,10.36 -5.84,13.96l-0.03 0.03c-3.6,3.59 -8.55,5.84 -13.96,5.84l-59.77 0 -36.23 0 -59.77 0c-5.41,0 -10.36,-2.25 -13.96,-5.84l-0.03 -0.03c-3.59,-3.6 -5.84,-8.55 -5.84,-13.96l0 -103.24c0,-5.42 2.24,-10.4 5.84,-14 3.58,-3.57 8.54,-5.83 13.99,-5.83l59.77 0zm0 126.3l36.23 0 59.77 0c0.86,0 1.67,-0.36 2.26,-0.94l0.03 -0.03c0.57,-0.59 0.94,-1.4 0.94,-2.26l0 -103.24c0,-0.86 -0.38,-1.67 -0.97,-2.27 -0.58,-0.58 -1.4,-0.96 -2.26,-0.96l-59.77 0 -36.23 0 -59.77 0c-0.86,0 -1.67,0.38 -2.26,0.96 -0.6,0.6 -0.97,1.41 -0.97,2.27l0 103.24c0,0.86 0.36,1.67 0.94,2.26l0.03 0.03c0.59,0.57 1.4,0.94 2.26,0.94l59.77 0z"/>
   <path class="fil0" d="M47.15 157.79c5.53,0 10.02,4.48 10.02,10.02 0,5.53 -4.49,10.02 -10.02,10.02 -5.53,0 -10.02,-4.49 -10.02,-10.02 0,-5.53 4.49,-10.02 10.02,-10.02zm-35.62 -157.79l69.83 0c6.34,0 11.53,5.28 11.53,11.53l0 189.56c0,6.26 -5.27,11.53 -11.53,11.53l-69.83 0c-6.25,0 -11.53,-5.19 -11.53,-11.53l0 -189.56c0,-6.34 5.19,-11.53 11.53,-11.53z"/>
  </g>
 </g>
</svg>
